<?xml version="1.0" encoding="UTF-8" standalone="no"?>
<!-- Created with Inkscape (http://www.inkscape.org/) -->

<svg
   width="14.417645mm"
   height="14.53573mm"
   viewBox="0 0 14.417645 14.53573"
   version="1.1"
   id="svg488"
   xmlns="http://www.w3.org/2000/svg"
   xmlns:svg="http://www.w3.org/2000/svg">
  <defs
     id="defs485" />
  <g
     id="layer1"
     transform="translate(-91.336549,-142.76705)">
    <path
       d="m 94.018276,144.91881 4.910314,2.83493 c 0.0039,0.002 0.0081,0.003 0.01199,0.005 0.0187,0.01 0.0381,0.018 0.05821,0.0243 0.0074,0.002 0.01411,0.005 0.02152,0.007 0.02505,0.006 0.05115,0.01 0.07796,0.01 3.53e-4,0 0.0011,0 0.0014,0 v 0 c 0,0 0,0 3.53e-4,0 0.02752,0 0.05433,-0.004 0.08008,-0.0102 0.0071,-0.002 0.01341,-0.004 0.02046,-0.006 0.0194,-0.006 0.03775,-0.0134 0.05539,-0.0226 0.0074,-0.004 0.01411,-0.007 0.02117,-0.0113 0.02046,-0.0123 0.03916,-0.0265 0.05644,-0.0427 0.0025,-0.002 0.0053,-0.004 0.0078,-0.006 0.0194,-0.019 0.03563,-0.0413 0.05009,-0.0649 0.0018,-0.002 0.0039,-0.004 0.0053,-0.007 0.0032,-0.006 0.0049,-0.0116 0.0078,-0.0173 0.0056,-0.0113 0.01094,-0.0226 0.01552,-0.0346 0.0039,-0.0102 0.0071,-0.0208 0.0099,-0.031 0.0028,-0.0109 0.0053,-0.0215 0.0071,-0.0325 0.0021,-0.0123 0.0032,-0.0247 0.0039,-0.037 3.53e-4,-0.006 0.0018,-0.0127 0.0018,-0.019 v -4.34799 c 0,-0.18944 -0.153458,-0.3429 -0.342547,-0.3429 -0.189442,0 -0.3429,0.15346 -0.3429,0.3429 v 3.75391 l -2.192514,-1.26577 v -2.11208 c 0,-0.18944 -0.153458,-0.3429 -0.3429,-0.3429 -0.189442,0 -0.3429,0.15346 -0.3429,0.3429 v 1.71627 l -1.518003,-0.8763 c -0.164042,-0.0949 -0.373592,-0.0385 -0.468136,0.12523 -0.0949,0.1644 -0.03845,0.37395 0.125589,0.46849"
       style="fill:#cba6f7;fill-opacity:1;fill-rule:nonzero;stroke:none;stroke-width:0.0352778"
       id="path116" />
    <path
       d="m 103.07232,155.15007 -4.909963,-2.83527 c -0.0056,-0.003 -0.01164,-0.005 -0.01729,-0.008 -0.01129,-0.006 -0.02258,-0.0109 -0.03422,-0.0152 -0.01058,-0.004 -0.02117,-0.007 -0.0321,-0.01 -0.01023,-0.003 -0.02081,-0.006 -0.0314,-0.007 -0.0127,-0.002 -0.0254,-0.003 -0.03845,-0.004 -0.006,-3.5e-4 -0.01199,-0.002 -0.01799,-0.002 -0.0039,0 -0.0071,0.001 -0.01094,0.001 -0.0127,3.5e-4 -0.02505,0.002 -0.03775,0.004 -0.01023,0.001 -0.02046,0.003 -0.03034,0.005 -0.01094,0.003 -0.02152,0.006 -0.03245,0.0102 -0.01023,0.004 -0.02046,0.007 -0.03034,0.0113 -0.01023,0.005 -0.0194,0.0102 -0.02928,0.0159 -0.0092,0.005 -0.0187,0.0106 -0.02787,0.0169 -0.0088,0.006 -0.01693,0.0138 -0.0254,0.0212 -0.0085,0.007 -0.01693,0.0145 -0.0247,0.0226 -0.0071,0.008 -0.01305,0.0159 -0.0194,0.024 -0.0078,0.01 -0.01552,0.0197 -0.02222,0.0307 -0.0018,0.003 -0.0046,0.006 -0.0064,0.009 -0.0032,0.006 -0.0049,0.0116 -0.0078,0.0173 -0.0056,0.0113 -0.01094,0.0226 -0.01552,0.0346 -0.0039,0.0102 -0.0067,0.0205 -0.0095,0.031 -0.0032,0.0106 -0.0056,0.0212 -0.0074,0.0325 -0.0021,0.0123 -0.0032,0.0243 -0.0039,0.0367 -3.52e-4,0.007 -0.0018,0.0127 -0.0018,0.0194 v 4.34798 c 0,0.18909 0.153458,0.3429 0.3429,0.3429 0.189088,0 0.342547,-0.15381 0.342547,-0.3429 v -3.75426 l 2.192516,1.26612 v 2.11208 c 0,0.18909 0.15346,0.3429 0.3429,0.3429 0.18944,0 0.3429,-0.15381 0.3429,-0.3429 v -1.71626 l 1.51765,0.8763 c 0.054,0.031 0.11289,0.0459 0.1711,0.0459 0.11853,0 0.23389,-0.0614 0.29739,-0.17145 0.0945,-0.16404 0.0385,-0.37359 -0.12559,-0.46814"
       style="fill:#cba6f7;fill-opacity:1;fill-rule:nonzero;stroke:none;stroke-width:0.0352778"
       id="path118" />
    <path
       d="m 96.931162,148.23245 c -0.0011,-0.0106 -0.0035,-0.0215 -0.0056,-0.0325 -0.0021,-0.0109 -0.0042,-0.0219 -0.0074,-0.0328 -0.0028,-0.01 -0.0071,-0.0194 -0.01094,-0.0289 -0.0046,-0.0116 -0.0095,-0.0229 -0.01517,-0.0342 -0.0018,-0.003 -0.0028,-0.007 -0.0046,-0.0102 -0.0032,-0.006 -0.0078,-0.01 -0.01129,-0.0152 -0.0067,-0.0106 -0.01376,-0.0208 -0.02152,-0.0303 -0.0074,-0.009 -0.01517,-0.0169 -0.02328,-0.025 -0.0074,-0.007 -0.01482,-0.0145 -0.02328,-0.0215 -0.01023,-0.008 -0.02081,-0.0155 -0.03175,-0.0226 -0.0049,-0.004 -0.0092,-0.007 -0.01446,-0.0106 l -3.765551,-2.17417 c -0.164041,-0.0945 -0.373591,-0.0385 -0.468488,0.12559 -0.09454,0.16404 -0.03845,0.37359 0.125588,0.46813 l 3.251553,1.87713 -2.192866,1.26612 -1.828448,-1.05586 c -0.163689,-0.0949 -0.373591,-0.0384 -0.468136,0.12559 -0.0949,0.16369 -0.03845,0.37359 0.125236,0.46813 l 1.4859,0.85796 -1.518708,0.87665 c -0.164042,0.0949 -0.220133,0.30445 -0.125236,0.46849 0.0635,0.11007 0.178505,0.17145 0.297039,0.17145 0.05821,0 0.117122,-0.0148 0.171097,-0.0459 l 2.029883,-1.17228 c 3.53e-4,0 7.06e-4,-3.5e-4 0.0011,-3.5e-4 l 2.877256,-1.66123 c 0,-3.6e-4 3.52e-4,-3.6e-4 7.05e-4,-7.1e-4 l 0.0021,-0.001 c 0.02364,-0.0134 0.0441,-0.03 0.06315,-0.048 0.0053,-0.005 0.0099,-0.0106 0.01482,-0.0159 0.01482,-0.0159 0.02822,-0.0332 0.03951,-0.0511 0.0025,-0.004 0.0056,-0.007 0.0081,-0.0106 0.0018,-0.003 0.0028,-0.007 0.0046,-0.01 0.0056,-0.0113 0.01058,-0.0226 0.01517,-0.0342 0.0039,-0.01 0.0081,-0.0194 0.01094,-0.0289 0.0032,-0.0109 0.0053,-0.0219 0.0074,-0.0328 0.0021,-0.0109 0.0046,-0.0219 0.0056,-0.0328 0.0011,-0.0109 7.06e-4,-0.0215 7.06e-4,-0.0328 0,-0.0109 3.52e-4,-0.0219 -7.06e-4,-0.0328"
       style="fill:#cba6f7;fill-opacity:1;fill-rule:nonzero;stroke:none;stroke-width:0.0352778"
       id="path120" />
    <path
       d="m 105.58268,151.01869 -1.5187,-0.877 1.5187,-0.87701 c 0.16405,-0.0945 0.22014,-0.30409 0.12559,-0.46813 -0.0949,-0.16405 -0.30444,-0.22014 -0.46849,-0.12559 l -4.91101,2.83527 c -0.006,0.004 -0.0102,0.008 -0.0155,0.0116 -0.0106,0.007 -0.0205,0.0138 -0.03,0.0215 -0.009,0.007 -0.0169,0.0148 -0.0247,0.0226 -0.008,0.008 -0.0152,0.0155 -0.0222,0.024 -0.008,0.01 -0.0152,0.0201 -0.0219,0.0307 -0.004,0.005 -0.008,0.01 -0.0113,0.0152 -0.002,0.003 -0.002,0.007 -0.004,0.0102 -0.006,0.0109 -0.0109,0.0226 -0.0155,0.0342 -0.004,0.01 -0.008,0.0191 -0.0109,0.0289 -0.003,0.0109 -0.005,0.0215 -0.007,0.0328 -0.002,0.0109 -0.004,0.0215 -0.005,0.0325 -0.001,0.0109 -0.001,0.0219 -0.001,0.0328 0,0.0109 0,0.0219 0.001,0.0328 0.001,0.0109 0.003,0.0219 0.005,0.0325 0.002,0.0113 0.004,0.0222 0.007,0.0328 0.003,0.01 0.007,0.0194 0.0109,0.0293 0.005,0.0117 0.01,0.0229 0.0155,0.0339 0.002,0.004 0.002,0.007 0.004,0.0102 0.002,0.004 0.006,0.007 0.008,0.0102 0.0116,0.0183 0.0247,0.0356 0.0399,0.0515 0.005,0.005 0.009,0.0109 0.0145,0.0159 0.0191,0.018 0.0395,0.0342 0.0632,0.048 l 0.002,10e-4 c 3.5e-4,3.5e-4 7.1e-4,3.5e-4 7.1e-4,3.5e-4 l 3.76308,2.17276 c 0.054,0.031 0.11289,0.0459 0.1711,0.0459 0.11853,0 0.23353,-0.0614 0.29703,-0.17145 0.0949,-0.16404 0.0385,-0.37359 -0.12558,-0.46849 l -3.2512,-1.87713 2.19216,-1.26577 1.8616,1.07457 c 0.054,0.0314 0.11289,0.0462 0.1711,0.0462 0.11854,0 0.23389,-0.0614 0.29739,-0.17145 0.0945,-0.16404 0.0385,-0.37359 -0.12559,-0.46814"
       style="fill:#cba6f7;fill-opacity:1;fill-rule:nonzero;stroke:none;stroke-width:0.0352778"
       id="path122" />
    <path
       d="m 96.373068,150.78692 c -0.0018,-0.0113 -0.0046,-0.0219 -0.0074,-0.0328 -0.0028,-0.0106 -0.0056,-0.0208 -0.0095,-0.031 -0.0046,-0.012 -0.0099,-0.0233 -0.01587,-0.0346 -0.0028,-0.006 -0.0042,-0.0116 -0.0074,-0.0169 -0.0021,-0.004 -0.0046,-0.006 -0.0067,-0.009 -0.0063,-0.0106 -0.01411,-0.0205 -0.02152,-0.0303 -0.0067,-0.008 -0.01305,-0.0166 -0.02011,-0.024 -0.0074,-0.008 -0.01587,-0.0152 -0.02434,-0.0226 -0.0085,-0.007 -0.01658,-0.0148 -0.02575,-0.0212 -0.0088,-0.006 -0.01834,-0.0117 -0.02787,-0.0173 -0.0095,-0.005 -0.0187,-0.0109 -0.02858,-0.0155 -0.01023,-0.005 -0.02117,-0.008 -0.03175,-0.0116 -0.01023,-0.004 -0.02046,-0.007 -0.03069,-0.01 -0.01094,-0.003 -0.02152,-0.004 -0.03281,-0.006 -0.01164,-0.002 -0.02328,-0.003 -0.03493,-0.004 -0.0042,0 -0.0078,-0.001 -0.01199,-0.001 -0.0067,0 -0.01341,0.001 -0.02011,0.002 -0.01164,0.001 -0.02328,0.002 -0.03528,0.004 -0.01164,0.002 -0.02293,0.005 -0.03422,0.008 -0.0099,0.003 -0.01976,0.006 -0.02963,0.009 -0.01199,0.005 -0.02364,0.0102 -0.03528,0.0162 -0.0056,0.003 -0.01129,0.004 -0.01693,0.007 l -3.76802,2.17558 c -0.163689,0.0945 -0.220133,0.3041 -0.125236,0.46814 0.0635,0.11006 0.178506,0.17145 0.297039,0.17145 0.05821,0 0.117122,-0.0148 0.171097,-0.0462 l 3.25367,-1.87818 v 2.53153 l -1.825272,1.0541 c -0.163689,0.0945 -0.220134,0.30409 -0.125236,0.46814 0.0635,0.11006 0.178505,0.17145 0.297038,0.17145 0.05821,0 0.117123,-0.0148 0.171098,-0.0459 l 1.482372,-0.85583 v 1.75436 c 0,0.18909 0.153458,0.34255 0.3429,0.34255 0.189442,0 0.3429,-0.15346 0.3429,-0.34255 v -5.67161 c 0,-0.007 -0.0014,-0.013 -0.0021,-0.0194 -3.52e-4,-0.0123 -0.0014,-0.0247 -0.0035,-0.0367"
       style="fill:#cba6f7;fill-opacity:1;fill-rule:nonzero;stroke:none;stroke-width:0.0352778"
       id="path124" />
    <path
       d="m 100.71753,149.28197 c 0.002,0.0109 0.005,0.0219 0.007,0.0325 0.003,0.0106 0.006,0.0208 0.01,0.031 0.005,0.012 0.01,0.0236 0.0159,0.0349 0.003,0.006 0.004,0.0113 0.008,0.0169 10e-4,0.002 0.004,0.004 0.005,0.007 0.0141,0.0233 0.0307,0.0455 0.0501,0.0649 0.002,0.002 0.005,0.004 0.007,0.006 0.0173,0.0162 0.0363,0.0303 0.0568,0.0427 0.007,0.004 0.0138,0.008 0.0208,0.0116 0.018,0.009 0.0363,0.0162 0.0557,0.0226 0.007,0.002 0.0134,0.005 0.0205,0.006 0.0258,0.006 0.0522,0.0106 0.0801,0.0106 0,0 0,0 3.5e-4,0 v 0 c 3.6e-4,0 7.1e-4,0 0.001,0 0.0272,-3.6e-4 0.0533,-0.004 0.0783,-0.0102 0.007,-0.002 0.0141,-0.004 0.0212,-0.007 0.0205,-0.006 0.0399,-0.0141 0.0582,-0.024 0.004,-0.002 0.008,-0.003 0.0123,-0.005 l 3.76661,-2.17452 c 0.16404,-0.0945 0.22013,-0.30445 0.12559,-0.46849 -0.0945,-0.16369 -0.3041,-0.22013 -0.46849,-0.12523 l -3.25226,1.87783 v -2.53188 l 1.82739,-1.05481 c 0.16369,-0.0949 0.22013,-0.30445 0.12524,-0.46849 -0.0945,-0.16369 -0.30374,-0.22013 -0.46814,-0.12559 l -1.48449,0.85725 v -1.75471 c 0,-0.18945 -0.15346,-0.3429 -0.3429,-0.3429 -0.18944,0 -0.3429,0.15345 -0.3429,0.3429 v 5.67196 c 0,0.007 0.002,0.0127 0.002,0.0194 7e-4,0.012 10e-4,0.0243 0.004,0.0367"
       style="fill:#cba6f7;fill-opacity:1;fill-rule:nonzero;stroke:none;stroke-width:0.0352778"
       id="path126" />
  </g>
</svg>
