<?xml version="1.0" standalone="no"?>
<!DOCTYPE svg PUBLIC "-//W3C//DTD SVG 20010904//EN"
 "http://www.w3.org/TR/2001/REC-SVG-20010904/DTD/svg10.dtd">
<svg version="1.0" xmlns="http://www.w3.org/2000/svg"
 width="880.000000pt" height="880.000000pt" viewBox="0 0 880.000000 880.000000"
 preserveAspectRatio="xMidYMid meet">
<metadata>
Created by potrace 1.14, written by Peter Selinger 2001-2017
</metadata>
<g transform="translate(0.000000,880.000000) scale(0.100000,-0.100000)"
fill="#000000" stroke="none">
<path d="M4666 8785 c-48 -17 -90 -56 -114 -108 -18 -38 -19 -85 -18 -1193 1
-635 -3 -1154 -8 -1154 -7 0 -378 211 -504 287 -20 12 -44 25 -52 29 -8 5 -53
30 -100 57 -82 48 -153 88 -195 111 -11 6 -22 13 -25 16 -4 4 -39 24 -95 54
-11 6 -22 14 -25 17 -3 3 -10 8 -16 10 -6 2 -76 42 -157 88 -90 51 -147 90
-148 100 0 9 -2 309 -3 666 -2 436 -6 658 -13 676 -69 163 -301 172 -378 15
l-25 -52 2 -532 c2 -337 -1 -533 -7 -535 -5 -2 -54 23 -108 55 -54 32 -100 58
-102 58 -2 0 -33 18 -69 40 -36 22 -70 40 -76 40 -5 0 -10 5 -10 10 0 6 -5 10
-10 10 -6 0 -27 11 -48 23 -35 23 -74 45 -179 103 -27 15 -55 32 -63 38 -8 7
-28 18 -45 26 -16 8 -74 41 -127 72 -54 32 -110 60 -125 64 -94 21 -180 -13
-228 -91 -67 -108 -28 -238 92 -300 21 -11 40 -22 43 -25 3 -3 70 -43 150 -89
80 -45 152 -86 160 -91 88 -54 295 -170 301 -170 5 0 9 -4 9 -8 0 -4 12 -13
28 -19 15 -7 50 -25 77 -41 225 -132 250 -147 385 -223 52 -29 97 -56 100 -59
4 -4 27 -17 115 -64 11 -6 22 -13 25 -16 3 -3 16 -11 30 -18 14 -7 39 -20 55
-31 17 -10 48 -28 70 -41 22 -12 69 -39 105 -60 36 -21 81 -47 100 -58 19 -11
91 -52 160 -92 69 -40 145 -84 170 -98 25 -14 74 -42 109 -64 34 -21 65 -38
67 -38 2 0 41 -22 86 -49 46 -27 117 -68 158 -92 41 -24 83 -48 92 -54 9 -5
29 -17 45 -26 15 -8 91 -52 168 -96 77 -44 156 -87 175 -95 70 -29 172 -5 226
54 55 60 53 3 53 1454 0 864 -3 1352 -10 1377 -6 21 -28 57 -52 81 -60 63
-138 81 -221 51z"/>
<path d="M5852 8519 c-44 -13 -107 -80 -124 -132 -11 -35 -13 -340 -13 -1792
l1 -1750 22 -42 c41 -78 102 -116 186 -117 56 0 89 14 248 107 54 31 102 57
108 57 5 0 10 4 10 8 0 5 17 16 37 26 20 10 89 48 152 86 64 37 132 77 152 88
76 42 84 47 89 52 3 3 19 12 35 21 17 8 107 60 200 114 94 54 186 108 207 119
20 12 61 36 92 54 31 17 60 32 66 32 5 0 10 3 10 8 0 4 34 25 75 47 41 21 75
43 75 47 0 4 9 8 20 8 11 0 20 5 20 10 0 6 5 10 10 10 6 0 35 15 64 34 29 18
62 37 74 40 12 4 22 12 22 17 0 5 5 9 11 9 5 0 51 24 102 54 51 30 108 63 127
74 257 146 407 237 427 258 73 79 68 223 -10 291 -64 55 -147 70 -218 40 -19
-8 -121 -64 -226 -125 -106 -62 -197 -112 -202 -112 -5 0 -11 -4 -13 -8 -3 -7
-44 -32 -168 -100 -25 -13 -52 -30 -60 -37 -8 -7 -20 -14 -25 -16 -25 -9 -430
-244 -433 -251 -2 -5 -7 -8 -12 -8 -5 0 -74 -38 -155 -85 -80 -47 -165 -96
-188 -109 -23 -13 -81 -46 -129 -75 -48 -28 -91 -51 -97 -51 -6 0 -11 -4 -11
-10 0 -5 -4 -10 -9 -10 -5 0 -66 -33 -135 -74 -69 -41 -127 -72 -130 -68 -2 4
-4 346 -4 760 -1 694 1 755 16 769 24 21 322 193 322 185 0 -4 4 -2 8 4 4 6
66 44 137 85 72 40 132 77 133 81 2 4 7 8 12 8 5 0 74 38 154 84 80 46 146 81
146 78 0 -4 4 -2 8 4 4 6 30 23 57 39 150 84 165 97 196 162 66 141 -45 299
-202 288 -43 -3 -76 -18 -203 -91 -83 -48 -167 -95 -186 -106 -19 -11 -51 -30
-70 -41 -52 -32 -90 -54 -140 -79 -25 -13 -47 -26 -48 -31 -2 -4 -20 -15 -40
-25 -21 -10 -93 -51 -161 -90 -68 -40 -127 -72 -132 -72 -4 0 -8 246 -7 548 0
591 1 582 -54 644 -50 57 -145 81 -226 57z"/>
<path d="M898 6989 c-127 -20 -200 -171 -141 -291 25 -52 58 -80 148 -129 33
-17 67 -37 75 -43 8 -6 24 -16 35 -22 69 -38 118 -66 154 -88 22 -14 45 -26
50 -26 5 0 11 -3 13 -7 3 -7 38 -28 123 -72 16 -9 32 -19 35 -22 3 -3 56 -34
117 -68 62 -35 115 -67 119 -72 3 -5 14 -9 24 -9 10 0 20 -4 22 -8 2 -5 64
-44 138 -86 177 -102 166 -95 237 -138 34 -21 64 -38 67 -38 2 0 50 -27 105
-60 56 -33 103 -60 105 -60 2 0 34 -18 71 -41 37 -22 84 -50 104 -61 20 -11
95 -54 168 -96 129 -74 132 -77 113 -94 -10 -10 -22 -18 -25 -18 -4 0 -45 -23
-93 -51 -48 -29 -103 -61 -122 -72 -19 -10 -109 -62 -200 -115 -91 -52 -181
-104 -200 -115 -19 -11 -48 -28 -65 -38 -16 -11 -37 -22 -45 -26 -8 -3 -31
-16 -50 -28 -19 -12 -56 -33 -81 -47 -80 -45 -94 -53 -99 -58 -3 -3 -19 -12
-35 -21 -17 -9 -85 -48 -152 -87 -68 -40 -127 -72 -132 -72 -5 0 -48 22 -96
50 -48 27 -91 50 -96 50 -5 0 -9 5 -9 10 0 6 -5 10 -11 10 -6 0 -49 23 -97 51
-48 29 -100 60 -117 69 -16 9 -72 41 -123 71 -51 30 -110 63 -130 74 -20 11
-38 23 -40 28 -2 4 -8 7 -13 7 -8 0 -81 41 -184 103 -157 95 -236 133 -282
136 -93 4 -167 -41 -204 -123 -19 -44 -24 -116 -10 -141 3 -5 6 -12 6 -15 1
-3 8 -19 17 -36 17 -30 56 -61 134 -106 23 -12 135 -77 249 -143 113 -66 230
-133 258 -148 29 -16 63 -36 77 -45 14 -9 34 -22 45 -28 11 -6 36 -20 55 -31
19 -11 61 -35 93 -53 52 -29 56 -34 40 -45 -18 -13 -126 -75 -483 -280 -107
-62 -230 -133 -273 -159 -43 -25 -81 -46 -83 -46 -2 0 -23 -12 -47 -27 -84
-55 -111 -102 -112 -193 0 -58 4 -70 34 -112 45 -62 105 -91 175 -85 72 7 85
12 192 76 17 10 51 30 75 43 24 13 63 36 86 51 24 15 45 27 48 27 3 0 41 22
85 50 44 27 80 46 80 43 0 -3 8 1 18 9 9 9 33 24 52 33 19 10 37 21 40 24 3 3
28 18 55 32 99 53 119 64 133 77 8 7 32 21 53 30 22 9 39 20 39 24 0 5 4 8 9
8 4 0 48 23 97 52 194 112 277 158 285 158 5 0 9 4 9 9 0 5 12 14 28 20 26 10
35 16 92 52 14 9 57 34 95 55 39 21 76 44 83 51 8 7 18 11 23 8 5 -4 9 -1 9 4
0 6 7 11 15 11 8 0 15 3 15 8 0 4 15 13 33 21 28 13 94 50 153 89 10 6 26 15
34 19 8 4 79 44 158 90 79 46 162 94 185 107 88 50 433 249 457 264 14 9 27
16 30 16 3 0 40 22 82 48 43 26 80 48 83 48 3 0 31 16 61 35 30 19 58 35 63
35 5 0 29 20 54 45 37 36 47 55 56 97 5 29 8 65 7 79 -8 58 -52 123 -105 153
-11 6 -43 25 -73 42 -29 17 -80 46 -113 64 -33 18 -71 41 -84 52 -13 10 -27
18 -31 18 -6 0 -248 138 -350 199 -53 32 -306 177 -315 180 -5 2 -12 7 -15 10
-5 6 -81 49 -117 66 -13 5 -23 13 -23 18 0 4 -6 7 -14 7 -8 0 -16 5 -18 11 -2
5 -11 11 -20 12 -9 2 -22 8 -29 13 -22 16 -103 62 -114 64 -5 0 -19 9 -30 19
-11 10 -30 22 -42 26 -13 3 -23 11 -23 16 0 5 -3 8 -7 7 -5 -2 -51 23 -103 53
-52 31 -133 78 -180 104 -47 27 -92 54 -101 62 -9 7 -18 11 -21 8 -3 -3 -11 1
-18 10 -7 8 -16 15 -20 15 -4 0 -38 18 -74 40 -36 22 -70 40 -76 40 -5 0 -10
5 -10 10 0 6 -6 10 -14 10 -8 0 -21 6 -28 13 -8 6 -29 20 -48 31 -19 10 -51
28 -70 39 -132 76 -170 88 -242 76z"/>
<path d="M8528 5249 c-16 -4 -28 -6 -28 -3 0 2 -85 -46 -190 -106 -104 -61
-194 -110 -200 -110 -5 0 -10 -3 -10 -7 0 -5 -10 -13 -23 -19 -42 -21 -142
-77 -157 -89 -8 -6 -36 -22 -62 -36 -27 -13 -48 -27 -48 -31 0 -5 -5 -8 -11
-8 -6 0 -48 -22 -95 -50 -47 -27 -89 -50 -94 -50 -6 0 -10 -4 -10 -8 0 -4 -12
-13 -27 -20 -31 -14 -47 -23 -176 -100 -49 -28 -90 -52 -92 -52 -3 0 -263
-150 -295 -170 -26 -16 -123 -72 -170 -98 -25 -14 -49 -28 -55 -32 -5 -5 -37
-23 -70 -40 -33 -18 -67 -38 -75 -45 -8 -7 -22 -15 -30 -18 -8 -4 -37 -20 -65
-37 -27 -16 -56 -33 -64 -37 -8 -3 -64 -35 -125 -71 -61 -36 -131 -76 -156
-90 -25 -14 -81 -46 -125 -72 -44 -26 -188 -109 -320 -185 -132 -76 -258 -150
-280 -166 -89 -60 -117 -188 -62 -276 24 -37 122 -113 146 -113 6 0 11 -4 11
-8 0 -4 12 -13 28 -20 15 -6 43 -21 62 -33 19 -11 53 -31 75 -42 22 -12 42
-24 45 -27 3 -3 16 -11 29 -18 13 -8 38 -22 55 -32 114 -64 206 -116 236 -135
19 -12 100 -60 180 -105 80 -46 215 -124 300 -173 85 -49 180 -103 210 -120
30 -16 62 -36 71 -43 8 -8 19 -14 23 -14 6 0 184 -102 246 -140 8 -5 38 -22
65 -38 84 -48 121 -69 354 -204 123 -71 235 -134 250 -140 36 -14 111 -11 152
6 153 65 165 287 20 370 -23 13 -113 65 -161 93 -19 11 -107 62 -195 113 -215
125 -222 129 -285 163 -30 16 -61 34 -68 40 -14 11 -86 52 -122 70 -14 6 -27
14 -30 17 -3 3 -68 42 -144 85 -77 44 -160 92 -185 107 -25 15 -53 31 -61 35
-8 4 -35 19 -60 33 -25 15 -121 71 -215 125 -93 54 -187 108 -207 121 -21 13
-44 24 -53 24 -8 0 -15 3 -15 8 0 4 -36 27 -80 52 -74 42 -78 46 -63 62 9 10
20 18 25 18 4 0 38 18 74 40 36 22 70 40 75 40 5 0 9 5 9 10 0 6 3 9 8 8 4 -2
52 24 107 56 55 32 113 66 130 75 16 9 36 22 43 29 7 6 18 12 23 12 6 0 31 14
57 32 26 18 48 31 50 30 1 -1 12 4 25 12 27 17 276 160 337 194 51 29 106 61
135 80 11 6 27 15 35 19 8 4 48 26 88 50 40 24 78 43 85 43 7 0 34 -13 60 -30
26 -16 50 -30 52 -30 3 0 49 -26 102 -58 54 -32 118 -69 143 -83 25 -13 47
-26 50 -29 3 -3 19 -12 35 -20 17 -8 32 -18 35 -21 3 -3 34 -21 70 -40 36 -19
67 -37 68 -41 2 -5 7 -8 12 -8 7 0 164 -89 230 -129 8 -6 65 -38 125 -72 61
-35 112 -66 115 -69 11 -14 93 -40 127 -40 148 0 249 141 199 278 -20 58 -71
96 -284 218 -114 65 -209 121 -212 124 -3 3 -16 11 -30 18 -14 7 -38 20 -55
30 -16 10 -50 30 -75 44 -38 21 -77 44 -170 98 -8 5 -39 22 -67 37 -29 15 -53
31 -53 35 0 4 -6 8 -12 8 -7 0 -21 7 -32 15 -18 14 -17 15 10 27 16 7 34 16
39 21 19 15 287 167 295 167 5 0 10 3 12 8 4 9 147 92 159 92 5 0 9 5 9 10 0
6 3 9 8 8 4 -1 18 5 32 14 48 30 290 168 296 168 13 0 114 84 114 95 0 3 6 18
13 33 67 136 -82 322 -225 281z"/>
<path d="M2825 4106 c-41 -13 -86 -34 -95 -45 -3 -3 -19 -13 -35 -22 -17 -8
-133 -75 -260 -149 -126 -73 -250 -144 -275 -158 -25 -14 -57 -33 -72 -43 -14
-11 -29 -19 -33 -19 -3 0 -59 -31 -123 -69 -112 -65 -162 -95 -225 -130 -16
-9 -36 -20 -45 -26 -89 -53 -224 -130 -282 -162 -19 -11 -113 -65 -209 -121
-96 -56 -177 -102 -182 -102 -4 0 -9 -3 -11 -7 -2 -5 -19 -17 -38 -27 -19 -11
-60 -33 -90 -49 -30 -17 -57 -33 -60 -37 -3 -3 -16 -11 -30 -17 -14 -7 -52
-28 -85 -48 -33 -19 -92 -53 -131 -75 -84 -47 -107 -70 -131 -130 -24 -59 -21
-117 10 -176 52 -100 183 -133 292 -74 77 42 229 131 242 142 7 6 13 7 13 2 0
-5 4 -4 8 2 4 6 27 21 52 35 25 13 48 29 52 34 4 6 8 6 8 2 0 -4 19 5 43 20
68 45 80 52 107 65 45 22 125 72 132 82 4 6 8 7 8 3 0 -8 9 -3 65 33 17 11 44
26 60 34 17 9 37 20 45 26 41 28 552 320 561 320 5 0 9 3 9 8 0 4 10 12 23 18
33 15 133 72 206 116 34 21 65 38 67 38 3 0 111 63 154 90 8 5 36 20 61 34
l46 24 -1 -149 c-1 -93 3 -149 9 -149 7 0 7 -3 0 -8 -13 -9 -13 -305 0 -314 7
-5 7 -8 0 -8 -6 0 -10 -58 -10 -155 0 -97 4 -155 10 -155 7 0 7 -3 0 -8 -13
-9 -13 -305 0 -314 7 -5 7 -8 0 -8 -6 0 -9 -49 -9 -130 l2 -130 -85 -50 c-47
-28 -87 -50 -89 -50 -2 0 -28 -16 -58 -35 -30 -19 -58 -35 -61 -35 -3 0 -31
-16 -61 -35 -30 -19 -60 -36 -67 -38 -7 -1 -14 -4 -17 -7 -9 -9 -192 -117
-288 -170 -15 -8 -51 -30 -79 -47 -29 -18 -53 -30 -53 -26 0 3 -8 -1 -17 -9
-18 -15 -191 -118 -199 -118 -8 0 -68 -44 -82 -60 -101 -119 -46 -301 103
-338 70 -17 124 -2 243 70 34 21 66 38 71 38 5 0 16 6 23 13 7 7 45 30 83 51
39 22 103 59 142 82 40 24 75 44 79 44 3 0 12 7 21 15 8 8 19 13 24 10 5 -4 9
-1 9 4 0 6 7 11 15 11 8 0 15 5 15 10 0 6 9 10 19 10 11 0 21 3 23 8 3 6 105
72 113 72 2 0 38 20 79 45 42 25 80 45 85 45 5 0 8 -45 7 -100 0 -58 3 -102 9
-104 7 -3 7 -5 0 -5 -7 -1 -9 -148 -8 -424 1 -232 2 -424 3 -427 1 -3 3 -19 4
-37 9 -88 122 -171 218 -160 81 9 130 43 169 116 l22 43 -1 1757 c0 966 -3
1763 -5 1771 -15 56 -56 109 -105 134 -42 21 -112 27 -157 12z"/>
<path d="M4005 3036 c-48 -17 -81 -44 -109 -86 -15 -22 -23 -40 -20 -40 4 0 2
-6 -4 -12 -7 -9 -10 -449 -9 -1383 2 -1296 3 -1372 20 -1402 44 -78 125 -120
210 -109 81 11 122 41 164 118 17 31 18 97 19 1187 0 868 3 1156 12 1159 6 2
25 -6 41 -17 16 -12 31 -21 34 -21 3 0 35 -18 71 -40 36 -22 70 -40 76 -40 5
0 10 -4 10 -10 0 -5 4 -10 10 -10 5 0 33 -14 62 -31 59 -35 101 -60 168 -97
25 -14 63 -36 84 -50 22 -13 60 -36 85 -49 25 -14 62 -35 82 -47 90 -52 153
-86 161 -86 4 0 8 -4 8 -9 0 -5 8 -12 18 -15 9 -3 26 -12 37 -19 22 -13 108
-63 165 -95 81 -45 115 -67 122 -77 4 -5 8 -6 8 -2 0 4 17 -4 37 -18 l38 -25
0 -663 c1 -652 1 -663 22 -702 43 -83 117 -122 207 -111 28 4 57 7 64 8 6 1
12 5 12 10 0 4 5 8 10 8 14 0 58 48 76 81 21 41 27 90 23 194 0 22 0 45 1 50
1 9 1 96 -1 190 0 22 0 45 1 50 1 9 1 96 -1 190 0 22 0 45 1 50 1 9 1 96 -1
190 0 22 0 45 1 50 1 6 1 45 0 88 -1 42 1 77 5 77 5 0 58 -30 100 -58 11 -7
35 -19 54 -28 18 -8 38 -20 45 -25 15 -14 388 -229 396 -229 3 0 12 -6 19 -12
6 -7 15 -13 19 -13 4 0 21 -9 37 -19 17 -11 47 -30 67 -43 21 -12 40 -23 43
-23 2 0 33 -17 67 -38 86 -52 120 -65 176 -65 83 0 169 67 192 149 11 40 12
99 1 119 -3 6 -6 13 -6 17 0 19 -81 108 -97 108 -7 0 -113 61 -158 90 -8 6
-22 13 -30 17 -8 3 -39 21 -68 40 -29 18 -54 33 -57 33 -2 0 -42 22 -87 49
-46 27 -100 58 -121 70 -58 32 -341 196 -435 252 -45 27 -87 49 -92 49 -6 0
-10 4 -10 8 0 4 -12 13 -27 19 -31 13 -92 48 -196 111 -37 23 -70 42 -72 42
-3 0 -22 11 -43 23 -20 13 -57 35 -82 49 -67 37 -109 62 -168 97 -29 17 -57
31 -62 31 -4 0 -10 3 -12 8 -1 4 -23 18 -48 31 -25 14 -47 27 -50 30 -3 3 -21
14 -40 25 -57 30 -102 56 -155 87 -27 17 -58 33 -67 36 -10 3 -18 9 -18 14 0
5 -5 9 -11 9 -6 0 -71 36 -146 80 -74 44 -137 80 -138 80 -2 0 -40 22 -84 49
-44 27 -81 47 -84 45 -2 -3 -10 2 -17 11 -7 8 -19 15 -26 15 -8 0 -14 5 -14
10 0 6 -5 10 -10 10 -6 0 -40 18 -76 40 -36 22 -67 40 -69 40 -2 0 -39 21 -82
46 -145 87 -209 105 -278 80z"/>
</g>
</svg>
